<svg width="623" height="73" viewBox="0 0 623 73" fill="none" xmlns="http://www.w3.org/2000/svg">
<path d="M0.376 72V1.92H14.584L21.4 24.192C22.104 26.432 22.68 28.48 23.128 30.336C23.576 32.192 23.864 33.536 23.992 34.368C24.12 33.536 24.408 32.192 24.856 30.336C25.304 28.48 25.848 26.432 26.488 24.192L33.016 1.92H47.224V72H35.992V50.208C35.992 47.008 36.088 43.52 36.28 39.744C36.472 35.968 36.696 32.192 36.952 28.416C37.208 24.64 37.496 21.056 37.816 17.664C38.2 14.272 38.52 11.296 38.776 8.736L29.368 41.856H18.424L8.728 8.736C9.048 11.168 9.368 14.048 9.688 17.376C10.008 20.64 10.296 24.16 10.552 27.936C10.872 31.648 11.128 35.424 11.32 39.264C11.512 43.104 11.608 46.752 11.608 50.208V72H0.376ZM55.9225 72L73.5865 1.92H89.0425L106.802 72H94.5145L90.6745 55.008H72.0505L68.2105 72H55.9225ZM74.2585 45.216H88.4665L84.2425 26.4C83.5385 23.264 82.9305 20.448 82.4185 17.952C81.9065 15.392 81.5545 13.536 81.3625 12.384C81.1705 13.536 80.8185 15.392 80.3065 17.952C79.8585 20.448 79.2505 23.232 78.4825 26.304L74.2585 45.216ZM139.309 72.96C134.829 72.96 130.893 72.128 127.501 70.464C124.173 68.736 121.581 66.336 119.725 63.264C117.933 60.128 117.037 56.448 117.037 52.224V21.696C117.037 17.408 117.933 13.728 119.725 10.656C121.581 7.584 124.173 5.216 127.501 3.55199C130.893 1.824 134.829 0.959999 139.309 0.959999C143.853 0.959999 147.757 1.824 151.021 3.55199C154.349 5.216 156.941 7.584 158.797 10.656C160.653 13.728 161.581 17.408 161.581 21.696H149.485C149.485 18.368 148.589 15.84 146.797 14.112C145.069 12.384 142.573 11.52 139.309 11.52C136.045 11.52 133.517 12.384 131.725 14.112C129.933 15.84 129.037 18.336 129.037 21.6V52.224C129.037 55.488 129.933 58.016 131.725 59.808C133.517 61.6 136.045 62.496 139.309 62.496C142.573 62.496 145.069 61.6 146.797 59.808C148.589 58.016 149.485 55.488 149.485 52.224V45.12H137.581V34.752H161.581V52.224C161.581 56.448 160.653 60.128 158.797 63.264C156.941 66.336 154.349 68.736 151.021 70.464C147.757 72.128 143.853 72.96 139.309 72.96ZM176.328 72V61.44H190.44V12.48H176.328V1.92H216.648V12.48H202.536V61.44H216.648V72H176.328ZM254.434 72.96C249.954 72.96 246.018 72.128 242.626 70.464C239.298 68.736 236.706 66.336 234.85 63.264C233.058 60.128 232.162 56.448 232.162 52.224V21.696C232.162 17.408 233.058 13.728 234.85 10.656C236.706 7.584 239.298 5.216 242.626 3.55199C246.018 1.824 249.954 0.959999 254.434 0.959999C258.978 0.959999 262.882 1.824 266.146 3.55199C269.474 5.216 272.066 7.584 273.922 10.656C275.778 13.728 276.706 17.408 276.706 21.696H264.61C264.61 18.368 263.714 15.84 261.922 14.112C260.194 12.384 257.698 11.52 254.434 11.52C251.17 11.52 248.642 12.384 246.85 14.112C245.058 15.84 244.162 18.336 244.162 21.6V52.224C244.162 55.488 245.058 58.016 246.85 59.808C248.642 61.536 251.17 62.4 254.434 62.4C257.698 62.4 260.194 61.536 261.922 59.808C263.714 58.016 264.61 55.488 264.61 52.224H276.706C276.706 56.384 275.778 60.032 273.922 63.168C272.066 66.304 269.474 68.736 266.146 70.464C262.882 72.128 258.978 72.96 254.434 72.96Z" fill="#101010"/>
<path d="M286.173 72L303.837 1.92H319.293L337.052 72H324.765L320.925 55.008H302.301L298.461 72H286.173ZM304.509 45.216H318.717L314.493 26.4C313.789 23.264 313.181 20.448 312.669 17.952C312.157 15.392 311.805 13.536 311.613 12.384C311.421 13.536 311.069 15.392 310.557 17.952C310.109 20.448 309.501 23.232 308.733 26.304L304.509 45.216ZM369.367 72.96C364.567 72.96 360.407 72.16 356.887 70.56C353.367 68.96 350.647 66.688 348.727 63.744C346.871 60.736 345.911 57.216 345.847 53.184H357.847C357.847 56.064 358.871 58.336 360.919 60C363.031 61.6 365.879 62.4 369.463 62.4C372.919 62.4 375.607 61.6 377.527 60C379.511 58.4 380.503 56.192 380.503 53.376C380.503 51.008 379.799 48.96 378.391 47.232C377.047 45.44 375.095 44.224 372.535 43.584L364.471 41.376C358.967 39.968 354.711 37.44 351.703 33.792C348.759 30.144 347.287 25.728 347.287 20.544C347.287 16.576 348.183 13.12 349.975 10.176C351.767 7.23199 354.295 4.96 357.559 3.36C360.887 1.76 364.791 0.959999 369.271 0.959999C376.055 0.959999 381.431 2.72 385.399 6.23999C389.367 9.696 391.383 14.368 391.447 20.256H379.447C379.447 17.504 378.551 15.36 376.759 13.824C374.967 12.224 372.439 11.424 369.175 11.424C366.039 11.424 363.607 12.16 361.879 13.632C360.151 15.104 359.287 17.184 359.287 19.872C359.287 22.304 359.927 24.384 361.207 26.112C362.551 27.776 364.471 28.96 366.967 29.664L375.319 31.968C380.887 33.376 385.143 35.904 388.087 39.552C391.031 43.136 392.503 47.584 392.503 52.896C392.503 56.864 391.543 60.384 389.623 63.456C387.703 66.464 385.015 68.8 381.559 70.464C378.103 72.128 374.039 72.96 369.367 72.96ZM426.93 72.96C422.13 72.96 417.97 72.16 414.45 70.56C410.93 68.96 408.21 66.688 406.29 63.744C404.434 60.736 403.474 57.216 403.41 53.184H415.41C415.41 56.064 416.434 58.336 418.482 60C420.594 61.6 423.442 62.4 427.026 62.4C430.482 62.4 433.17 61.6 435.09 60C437.074 58.4 438.066 56.192 438.066 53.376C438.066 51.008 437.362 48.96 435.954 47.232C434.61 45.44 432.658 44.224 430.098 43.584L422.034 41.376C416.53 39.968 412.274 37.44 409.266 33.792C406.322 30.144 404.85 25.728 404.85 20.544C404.85 16.576 405.746 13.12 407.538 10.176C409.33 7.23199 411.858 4.96 415.122 3.36C418.45 1.76 422.354 0.959999 426.834 0.959999C433.618 0.959999 438.994 2.72 442.962 6.23999C446.93 9.696 448.946 14.368 449.01 20.256H437.01C437.01 17.504 436.114 15.36 434.322 13.824C432.53 12.224 430.002 11.424 426.738 11.424C423.602 11.424 421.17 12.16 419.442 13.632C417.714 15.104 416.85 17.184 416.85 19.872C416.85 22.304 417.49 24.384 418.77 26.112C420.114 27.776 422.034 28.96 424.53 29.664L432.882 31.968C438.45 33.376 442.706 35.904 445.65 39.552C448.594 43.136 450.066 47.584 450.066 52.896C450.066 56.864 449.106 60.384 447.186 63.456C445.266 66.464 442.578 68.8 439.122 70.464C435.666 72.128 431.602 72.96 426.93 72.96ZM463.948 72V1.92H505.996V12.384H475.756V30.624H502.636V40.992H475.756V61.536H505.996V72H463.948ZM535.815 72V13.056H517.479V1.92H566.247V13.056H547.911V72H535.815ZM599.617 72.96C594.817 72.96 590.657 72.16 587.137 70.56C583.617 68.96 580.897 66.688 578.977 63.744C577.121 60.736 576.161 57.216 576.097 53.184H588.097C588.097 56.064 589.121 58.336 591.169 60C593.281 61.6 596.129 62.4 599.713 62.4C603.169 62.4 605.857 61.6 607.777 60C609.761 58.4 610.753 56.192 610.753 53.376C610.753 51.008 610.049 48.96 608.641 47.232C607.297 45.44 605.345 44.224 602.785 43.584L594.721 41.376C589.217 39.968 584.961 37.44 581.953 33.792C579.009 30.144 577.537 25.728 577.537 20.544C577.537 16.576 578.433 13.12 580.225 10.176C582.017 7.23199 584.545 4.96 587.809 3.36C591.137 1.76 595.041 0.959999 599.521 0.959999C606.305 0.959999 611.681 2.72 615.649 6.23999C619.617 9.696 621.633 14.368 621.697 20.256H609.697C609.697 17.504 608.801 15.36 607.009 13.824C605.217 12.224 602.689 11.424 599.425 11.424C596.289 11.424 593.857 12.16 592.129 13.632C590.401 15.104 589.537 17.184 589.537 19.872C589.537 22.304 590.177 24.384 591.457 26.112C592.801 27.776 594.721 28.96 597.217 29.664L605.569 31.968C611.137 33.376 615.393 35.904 618.337 39.552C621.281 43.136 622.753 47.584 622.753 52.896C622.753 56.864 621.793 60.384 619.873 63.456C617.953 66.464 615.265 68.8 611.809 70.464C608.353 72.128 604.289 72.96 599.617 72.96Z" fill="url(#paint0_linear_43_115)"/>
<defs>
<linearGradient id="paint0_linear_43_115" x1="-5" y1="37.5" x2="629" y2="37.5" gradientUnits="userSpaceOnUse">
<stop offset="0.5" stop-color="#6FD904"/>
<stop offset="0.75" stop-color="#74BF04"/>
<stop offset="1" stop-color="#558C03"/>
</linearGradient>
</defs>
</svg>
